<?xml version="1.0" encoding="UTF-8" standalone="no"?><!DOCTYPE svg PUBLIC "-//W3C//DTD SVG 1.1//EN" "http://www.w3.org/Graphics/SVG/1.1/DTD/svg11.dtd"><svg width="100%" height="100%" viewBox="0 0 32 32" version="1.1" xmlns="http://www.w3.org/2000/svg" xmlns:xlink="http://www.w3.org/1999/xlink" xml:space="preserve" xmlns:serif="http://www.serif.com/" style="fill-rule:evenodd;clip-rule:evenodd;stroke-linejoin:round;stroke-miterlimit:2;"><path id="databrize_icon" d="M12.731,-0c3.407,-0 6.392,0.652 8.955,1.957c2.563,1.304 4.543,3.177 5.94,5.617c1.397,2.44 2.095,5.287 2.095,8.541c-0,3.254 -0.698,6.078 -2.095,8.472c-1.397,2.394 -3.377,4.228 -5.94,5.502c-2.563,1.274 -5.548,1.911 -8.955,1.911l-10.452,0l0,-32l10.452,-0Zm9.363,23.813c-0.173,0.009 -0.348,0.014 -0.527,0.014c-0.874,-0 -1.707,-0.102 -2.501,-0.306c-0.794,-0.204 -2.053,-0.692 -3.779,-1.464c-1.726,-0.772 -3.164,-1.158 -4.314,-1.158c-0.932,0 -1.809,0.201 -2.632,0.601c-0.252,0.123 -0.523,0.282 -0.813,0.478l0,5.74l5.203,-0c3.745,-0 6.615,-1.013 8.61,-3.039c0.269,-0.273 0.521,-0.562 0.753,-0.866Zm2.199,-8.966c-0.823,0.269 -1.729,0.404 -2.717,0.404c-0.874,-0 -1.707,-0.102 -2.501,-0.306c-0.794,-0.204 -2.053,-0.692 -3.779,-1.464c-1.726,-0.771 -3.164,-1.157 -4.314,-1.157c-0.932,-0 -1.809,0.2 -2.632,0.6c-0.255,0.124 -0.529,0.286 -0.822,0.484l0,4.215c1.116,-0.568 2.388,-0.852 3.816,-0.852c0.874,-0 1.791,0.127 2.753,0.382c0.961,0.255 2.33,0.761 4.106,1.518c1.005,0.423 1.759,0.699 2.261,0.83c0.503,0.132 1.009,0.197 1.518,0.197c0.674,0 1.364,-0.144 2.071,-0.431c0.187,-0.973 0.281,-2.024 0.281,-3.152c-0,-0.434 -0.014,-0.856 -0.041,-1.268Zm-0.801,-3.954c-0.497,-1.34 -1.214,-2.5 -2.151,-3.48c-1.995,-2.087 -4.865,-3.131 -8.61,-3.131l-5.203,0l0,4.77c1.118,-0.571 2.393,-0.857 3.825,-0.857c0.874,0 1.791,0.128 2.753,0.383c0.961,0.254 2.33,0.76 4.106,1.518c1.005,0.422 1.759,0.699 2.261,0.83c0.503,0.131 1.009,0.196 1.518,0.196c0.492,0 0.992,-0.076 1.501,-0.229Z" style="fill:#0082fd;fill-rule:nonzero;"/></svg>