<?xml version="1.0" encoding="UTF-8" standalone="no"?><!DOCTYPE svg PUBLIC "-//W3C//DTD SVG 1.1//EN" "http://www.w3.org/Graphics/SVG/1.1/DTD/svg11.dtd"><svg width="100%" height="100%" viewBox="0 0 193 32" version="1.1" xmlns="http://www.w3.org/2000/svg" xmlns:xlink="http://www.w3.org/1999/xlink" xml:space="preserve" xmlns:serif="http://www.serif.com/" style="fill-rule:evenodd;clip-rule:evenodd;stroke-linejoin:round;stroke-miterlimit:2;"><path id="DataBrize-blue" serif:id="DataBrize blue" d="M27.564,20.211c-0,-2.273 0.472,-4.286 1.417,-6.039c0.945,-1.753 2.232,-3.115 3.861,-4.087c1.63,-0.972 3.43,-1.459 5.402,-1.459c1.78,0 3.334,0.35 4.662,1.048c1.328,0.698 2.39,1.568 3.184,2.608l-0,-3.286l4.724,0l-0,22.634l-4.724,0l-0,-3.368c-0.794,1.068 -1.876,1.958 -3.245,2.67c-1.37,0.712 -2.931,1.068 -4.683,1.068c-1.945,0 -3.725,-0.5 -5.34,-1.499c-1.616,-1 -2.896,-2.397 -3.841,-4.19c-0.945,-1.794 -1.417,-3.827 -1.417,-6.1Zm165.134,-0.452c0,0.849 -0.054,1.615 -0.164,2.3l-17.294,0c0.137,1.807 0.808,3.259 2.013,4.354c1.205,1.096 2.684,1.643 4.436,1.643c2.52,0 4.3,-1.054 5.341,-3.163l5.052,0c-0.684,2.082 -1.924,3.787 -3.717,5.115c-1.794,1.328 -4.019,1.992 -6.676,1.992c-2.163,0 -4.101,-0.486 -5.812,-1.458c-1.712,-0.972 -3.054,-2.342 -4.026,-4.108c-0.972,-1.766 -1.458,-3.814 -1.458,-6.141c-0,-2.328 0.472,-4.375 1.417,-6.142c0.945,-1.766 2.273,-3.128 3.985,-4.087c1.711,-0.958 3.676,-1.438 5.894,-1.438c2.136,0 4.04,0.466 5.71,1.397c1.671,0.931 2.972,2.239 3.903,3.923c0.931,1.684 1.396,3.622 1.396,5.813Zm-122.002,0.452c-0,-2.273 0.472,-4.286 1.417,-6.039c0.945,-1.753 2.232,-3.115 3.861,-4.087c1.63,-0.972 3.43,-1.459 5.402,-1.459c1.78,0 3.334,0.35 4.663,1.048c1.328,0.698 2.389,1.568 3.183,2.608l0,-3.286l4.724,0l0,22.634l-4.724,0l0,-3.368c-0.794,1.068 -1.876,1.958 -3.245,2.67c-1.369,0.712 -2.93,1.068 -4.683,1.068c-1.944,0 -3.724,-0.5 -5.34,-1.499c-1.616,-1 -2.896,-2.397 -3.841,-4.19c-0.945,-1.794 -1.417,-3.827 -1.417,-6.1Zm75.748,-11.215l0,22.634l-4.683,0l0,-22.634l4.683,0Zm-15.774,3.286c0.685,-1.15 1.595,-2.047 2.732,-2.69c1.136,-0.644 2.485,-0.966 4.046,-0.966l0,4.848l-1.191,-0c-1.835,-0 -3.225,0.465 -4.17,1.396c-0.945,0.931 -1.417,2.547 -1.417,4.848l0,11.912l-4.683,0l0,-22.634l4.683,0l0,3.286Zm26.085,15.528l10.269,0l0,3.82l-15.692,0l0,-3.82l10.311,-14.994l-10.311,0l0,-3.82l15.692,0l0,3.82l-10.269,14.994Zm-94.316,-14.994l0,12.529c0,0.849 0.199,1.459 0.596,1.828c0.397,0.37 1.075,0.555 2.033,0.555l2.876,-0l-0,3.902l-3.698,0c-2.108,0 -3.724,-0.493 -4.847,-1.479c-1.123,-0.985 -1.684,-2.587 -1.684,-4.806l0,-12.529l-2.67,0l-0,-3.82l2.67,0l0,-5.628l4.724,0l0,5.628l5.505,0l-0,3.82l-5.505,0Zm52.95,4.149c1.534,0.274 2.834,1.082 3.902,2.424c1.068,1.342 1.602,2.862 1.602,4.56c0,1.451 -0.376,2.759 -1.129,3.923c-0.753,1.164 -1.842,2.081 -3.266,2.752c-1.424,0.671 -3.081,1.006 -4.97,1.006l-11.42,0l-0,-28.549l10.886,-0c1.944,-0 3.614,0.328 5.011,0.986c1.397,0.657 2.451,1.54 3.163,2.649c0.712,1.109 1.068,2.349 1.068,3.718c0,1.643 -0.438,3.012 -1.314,4.108c-0.877,1.095 -2.054,1.903 -3.533,2.423Zm-106.064,-13.884c3.04,-0 5.703,0.582 7.99,1.746c2.286,1.164 4.053,2.834 5.299,5.011c1.246,2.177 1.869,4.717 1.869,7.62c-0,2.903 -0.623,5.423 -1.869,7.559c-1.246,2.136 -3.013,3.772 -5.299,4.909c-2.287,1.136 -4.95,1.704 -7.99,1.704l-9.325,0l0,-28.549l9.325,-0Zm36.765,17.212c-0,-1.561 -0.322,-2.917 -0.965,-4.067c-0.644,-1.15 -1.486,-2.027 -2.527,-2.629c-1.04,-0.603 -2.163,-0.904 -3.368,-0.904c-1.205,0 -2.328,0.295 -3.369,0.883c-1.04,0.589 -1.882,1.452 -2.526,2.588c-0.644,1.137 -0.965,2.486 -0.965,4.047c-0,1.561 0.321,2.93 0.965,4.107c0.644,1.178 1.493,2.075 2.547,2.691c1.054,0.616 2.17,0.924 3.348,0.924c1.205,0 2.328,-0.301 3.368,-0.903c1.041,-0.603 1.883,-1.486 2.527,-2.65c0.643,-1.164 0.965,-2.526 0.965,-4.087Zm43.132,-0c0,-1.561 -0.322,-2.917 -0.965,-4.067c-0.644,-1.15 -1.486,-2.027 -2.527,-2.629c-1.04,-0.603 -2.163,-0.904 -3.368,-0.904c-1.205,0 -2.328,0.295 -3.368,0.883c-1.041,0.589 -1.883,1.452 -2.527,2.588c-0.643,1.137 -0.965,2.486 -0.965,4.047c-0,1.561 0.322,2.93 0.965,4.107c0.644,1.178 1.493,2.075 2.547,2.691c1.054,0.616 2.17,0.924 3.348,0.924c1.205,0 2.328,-0.301 3.368,-0.903c1.041,-0.603 1.883,-1.486 2.527,-2.65c0.643,-1.164 0.965,-2.526 0.965,-4.087Zm21.895,7.517c1.588,0 2.834,-0.383 3.738,-1.15c0.904,-0.767 1.356,-1.835 1.356,-3.204c-0,-1.397 -0.48,-2.506 -1.438,-3.328c-0.959,-0.821 -2.232,-1.232 -3.82,-1.232l-6.162,0l-0,8.914l6.326,0Zm-93.438,-3.484c-0.155,0.008 -0.312,0.012 -0.471,0.012c-0.779,0 -1.523,-0.091 -2.231,-0.273c-0.708,-0.182 -1.832,-0.617 -3.372,-1.305c-1.539,-0.689 -2.822,-1.033 -3.849,-1.033c-0.831,-0 -1.614,0.178 -2.348,0.536c-0.225,0.109 -0.467,0.251 -0.725,0.426l-0,5.121l4.642,0c3.341,0 5.901,-0.904 7.681,-2.711c0.241,-0.244 0.465,-0.502 0.673,-0.773Zm1.961,-7.999c-0.734,0.24 -1.542,0.36 -2.424,0.36c-0.779,0 -1.523,-0.091 -2.231,-0.273c-0.708,-0.182 -1.832,-0.617 -3.372,-1.305c-1.539,-0.689 -2.822,-1.033 -3.849,-1.033c-0.831,-0 -1.614,0.178 -2.348,0.536c-0.227,0.11 -0.472,0.254 -0.733,0.431l-0,3.761c0.996,-0.507 2.13,-0.761 3.405,-0.761c0.779,0 1.598,0.114 2.455,0.341c0.858,0.228 2.079,0.679 3.664,1.355c0.897,0.377 1.569,0.624 2.017,0.741c0.448,0.116 0.9,0.175 1.355,0.175c0.601,-0 1.216,-0.128 1.847,-0.385c0.167,-0.868 0.251,-1.805 0.251,-2.812c-0,-0.387 -0.013,-0.764 -0.037,-1.131Zm168.17,1.953c-0.027,-1.725 -0.644,-3.108 -1.849,-4.149c-1.204,-1.041 -2.697,-1.561 -4.477,-1.561c-1.616,-0 -2.999,0.513 -4.149,1.54c-1.15,1.027 -1.835,2.417 -2.054,4.17l12.529,-0Zm-83.019,-3.204l5.792,-0c1.533,-0 2.732,-0.349 3.594,-1.048c0.863,-0.698 1.294,-1.705 1.294,-3.019c0,-1.287 -0.431,-2.294 -1.294,-3.019c-0.862,-0.726 -2.061,-1.089 -3.594,-1.089l-5.792,0l-0,8.175Zm-85.865,-2.277c-0.444,-1.195 -1.083,-2.23 -1.92,-3.105c-1.78,-1.862 -4.34,-2.793 -7.681,-2.793l-4.642,0l-0,4.256c0.997,-0.51 2.135,-0.765 3.413,-0.765c0.779,0 1.598,0.114 2.455,0.341c0.858,0.228 2.079,0.679 3.664,1.355c0.897,0.377 1.569,0.624 2.017,0.74c0.448,0.117 0.9,0.176 1.355,0.176c0.438,-0 0.884,-0.068 1.339,-0.205Zm125.218,-6.802c-0.849,0 -1.561,-0.287 -2.136,-0.862c-0.575,-0.575 -0.863,-1.287 -0.863,-2.136c0,-0.849 0.288,-1.561 0.863,-2.136c0.575,-0.575 1.287,-0.863 2.136,-0.863c0.821,-0 1.52,0.288 2.095,0.863c0.575,0.575 0.862,1.287 0.862,2.136c0,0.849 -0.287,1.561 -0.862,2.136c-0.575,0.575 -1.274,0.862 -2.095,0.862Z" style="fill:#fff;fill-rule:nonzero;"/></svg>